
<svg xmlns='http://www.w3.org/2000/svg' width='380' height='380'>
  <text x='110.0' y='20' font-size='16'>Feature Correlation</text>
  <rect x="80" y="80" width="25" height="25" fill="rgb(0,0,255)" /><text x="85" y="97" font-size="10">1.00</text><rect x="105" y="80" width="25" height="25" fill="rgb(188,188,255)" /><text x="110" y="97" font-size="10">-0.47</text><rect x="130" y="80" width="25" height="25" fill="rgb(50,50,255)" /><text x="135" y="97" font-size="10">0.61</text><rect x="155" y="80" width="25" height="25" fill="rgb(123,123,255)" /><text x="160" y="97" font-size="10">0.04</text><rect x="180" y="80" width="25" height="25" fill="rgb(117,117,255)" /><text x="185" y="97" font-size="10">0.09</text><rect x="205" y="80" width="25" height="25" fill="rgb(78,78,255)" /><text x="210" y="97" font-size="10">0.39</text><rect x="230" y="80" width="25" height="25" fill="rgb(85,85,255)" /><text x="235" y="97" font-size="10">0.34</text><rect x="255" y="80" width="25" height="25" fill="rgb(58,58,255)" /><text x="260" y="97" font-size="10">0.55</text><rect x="280" y="80" width="25" height="25" fill="rgb(203,203,255)" /><text x="285" y="97" font-size="10">-0.59</text><rect x="305" y="80" width="25" height="25" fill="rgb(114,114,255)" /><text x="310" y="97" font-size="10">0.11</text><rect x="330" y="80" width="25" height="25" fill="rgb(138,138,255)" /><text x="335" y="97" font-size="10">-0.08</text><rect x="355" y="80" width="25" height="25" fill="rgb(97,97,255)" /><text x="360" y="97" font-size="10">0.24</text><rect x="80" y="105" width="25" height="25" fill="rgb(188,188,255)" /><text x="85" y="122" font-size="10">-0.47</text><rect x="105" y="105" width="25" height="25" fill="rgb(0,0,255)" /><text x="110" y="122" font-size="10">1.00</text><rect x="130" y="105" width="25" height="25" fill="rgb(241,241,255)" /><text x="135" y="122" font-size="10">-0.88</text><rect x="155" y="105" width="25" height="25" fill="rgb(116,116,255)" /><text x="160" y="122" font-size="10">0.09</text><rect x="180" y="105" width="25" height="25" fill="rgb(145,145,255)" /><text x="185" y="122" font-size="10">-0.13</text><rect x="205" y="105" width="25" height="25" fill="rgb(145,145,255)" /><text x="210" y="122" font-size="10">-0.14</text><rect x="230" y="105" width="25" height="25" fill="rgb(145,145,255)" /><text x="235" y="122" font-size="10">-0.13</text><rect x="255" y="105" width="25" height="25" fill="rgb(143,143,255)" /><text x="260" y="122" font-size="10">-0.12</text><rect x="280" y="105" width="25" height="25" fill="rgb(114,114,255)" /><text x="285" y="122" font-size="10">0.11</text><rect x="305" y="105" width="25" height="25" fill="rgb(133,133,255)" /><text x="310" y="122" font-size="10">-0.04</text><rect x="330" y="105" width="25" height="25" fill="rgb(148,148,255)" /><text x="335" y="122" font-size="10">-0.15</text><rect x="355" y="105" width="25" height="25" fill="rgb(183,183,255)" /><text x="360" y="122" font-size="10">-0.43</text><rect x="80" y="130" width="25" height="25" fill="rgb(50,50,255)" /><text x="85" y="147" font-size="10">0.61</text><rect x="105" y="130" width="25" height="25" fill="rgb(241,241,255)" /><text x="110" y="147" font-size="10">-0.88</text><rect x="130" y="130" width="25" height="25" fill="rgb(0,0,255)" /><text x="135" y="147" font-size="10">1.00</text><rect x="155" y="130" width="25" height="25" fill="rgb(123,123,255)" /><text x="160" y="147" font-size="10">0.04</text><rect x="180" y="130" width="25" height="25" fill="rgb(90,90,255)" /><text x="185" y="147" font-size="10">0.30</text><rect x="205" y="130" width="25" height="25" fill="rgb(95,95,255)" /><text x="210" y="147" font-size="10">0.26</text><rect x="230" y="130" width="25" height="25" fill="rgb(87,87,255)" /><text x="235" y="147" font-size="10">0.32</text><rect x="255" y="130" width="25" height="25" fill="rgb(90,90,255)" /><text x="260" y="147" font-size="10">0.30</text><rect x="280" y="130" width="25" height="25" fill="rgb(182,182,255)" /><text x="285" y="147" font-size="10">-0.43</text><rect x="305" y="130" width="25" height="25" fill="rgb(82,82,255)" /><text x="310" y="147" font-size="10">0.36</text><rect x="330" y="130" width="25" height="25" fill="rgb(104,104,255)" /><text x="335" y="147" font-size="10">0.19</text><rect x="355" y="130" width="25" height="25" fill="rgb(88,88,255)" /><text x="360" y="147" font-size="10">0.31</text><rect x="80" y="155" width="25" height="25" fill="rgb(123,123,255)" /><text x="85" y="172" font-size="10">0.04</text><rect x="105" y="155" width="25" height="25" fill="rgb(116,116,255)" /><text x="110" y="172" font-size="10">0.09</text><rect x="130" y="155" width="25" height="25" fill="rgb(123,123,255)" /><text x="135" y="172" font-size="10">0.04</text><rect x="155" y="155" width="25" height="25" fill="rgb(0,0,255)" /><text x="160" y="172" font-size="10">1.00</text><rect x="180" y="155" width="25" height="25" fill="rgb(136,136,255)" /><text x="185" y="172" font-size="10">-0.07</text><rect x="205" y="155" width="25" height="25" fill="rgb(93,93,255)" /><text x="210" y="172" font-size="10">0.28</text><rect x="230" y="155" width="25" height="25" fill="rgb(61,61,255)" /><text x="235" y="172" font-size="10">0.53</text><rect x="255" y="155" width="25" height="25" fill="rgb(66,66,255)" /><text x="260" y="172" font-size="10">0.49</text><rect x="280" y="155" width="25" height="25" fill="rgb(141,141,255)" /><text x="285" y="172" font-size="10">-0.10</text><rect x="305" y="155" width="25" height="25" fill="rgb(124,124,255)" /><text x="310" y="172" font-size="10">0.03</text><rect x="330" y="155" width="25" height="25" fill="rgb(115,115,255)" /><text x="335" y="172" font-size="10">0.11</text><rect x="355" y="155" width="25" height="25" fill="rgb(184,184,255)" /><text x="360" y="172" font-size="10">-0.44</text><rect x="80" y="180" width="25" height="25" fill="rgb(117,117,255)" /><text x="85" y="197" font-size="10">0.09</text><rect x="105" y="180" width="25" height="25" fill="rgb(145,145,255)" /><text x="110" y="197" font-size="10">-0.13</text><rect x="130" y="180" width="25" height="25" fill="rgb(90,90,255)" /><text x="135" y="197" font-size="10">0.30</text><rect x="155" y="180" width="25" height="25" fill="rgb(136,136,255)" /><text x="160" y="197" font-size="10">-0.07</text><rect x="180" y="180" width="25" height="25" fill="rgb(0,0,255)" /><text x="185" y="197" font-size="10">1.00</text><rect x="205" y="180" width="25" height="25" fill="rgb(106,106,255)" /><text x="210" y="197" font-size="10">0.17</text><rect x="230" y="180" width="25" height="25" fill="rgb(104,104,255)" /><text x="235" y="197" font-size="10">0.19</text><rect x="255" y="180" width="25" height="25" fill="rgb(117,117,255)" /><text x="260" y="197" font-size="10">0.08</text><rect x="280" y="180" width="25" height="25" fill="rgb(214,214,255)" /><text x="285" y="197" font-size="10">-0.67</text><rect x="305" y="180" width="25" height="25" fill="rgb(44,44,255)" /><text x="310" y="197" font-size="10">0.66</text><rect x="330" y="180" width="25" height="25" fill="rgb(177,177,255)" /><text x="335" y="197" font-size="10">-0.39</text><rect x="355" y="180" width="25" height="25" fill="rgb(137,137,255)" /><text x="360" y="197" font-size="10">-0.07</text><rect x="80" y="205" width="25" height="25" fill="rgb(78,78,255)" /><text x="85" y="222" font-size="10">0.39</text><rect x="105" y="205" width="25" height="25" fill="rgb(145,145,255)" /><text x="110" y="222" font-size="10">-0.14</text><rect x="130" y="205" width="25" height="25" fill="rgb(95,95,255)" /><text x="135" y="222" font-size="10">0.26</text><rect x="155" y="205" width="25" height="25" fill="rgb(93,93,255)" /><text x="160" y="222" font-size="10">0.28</text><rect x="180" y="205" width="25" height="25" fill="rgb(106,106,255)" /><text x="185" y="222" font-size="10">0.17</text><rect x="205" y="205" width="25" height="25" fill="rgb(0,0,255)" /><text x="210" y="222" font-size="10">1.00</text><rect x="230" y="205" width="25" height="25" fill="rgb(12,12,255)" /><text x="235" y="222" font-size="10">0.91</text><rect x="255" y="205" width="25" height="25" fill="rgb(80,80,255)" /><text x="260" y="222" font-size="10">0.38</text><rect x="280" y="205" width="25" height="25" fill="rgb(171,171,255)" /><text x="285" y="222" font-size="10">-0.34</text><rect x="305" y="205" width="25" height="25" fill="rgb(113,113,255)" /><text x="310" y="222" font-size="10">0.12</text><rect x="330" y="205" width="25" height="25" fill="rgb(125,125,255)" /><text x="335" y="222" font-size="10">0.02</text><rect x="355" y="205" width="25" height="25" fill="rgb(121,121,255)" /><text x="360" y="222" font-size="10">0.05</text><rect x="80" y="230" width="25" height="25" fill="rgb(85,85,255)" /><text x="85" y="247" font-size="10">0.34</text><rect x="105" y="230" width="25" height="25" fill="rgb(145,145,255)" /><text x="110" y="247" font-size="10">-0.13</text><rect x="130" y="230" width="25" height="25" fill="rgb(87,87,255)" /><text x="135" y="247" font-size="10">0.32</text><rect x="155" y="230" width="25" height="25" fill="rgb(61,61,255)" /><text x="160" y="247" font-size="10">0.53</text><rect x="180" y="230" width="25" height="25" fill="rgb(104,104,255)" /><text x="185" y="247" font-size="10">0.19</text><rect x="205" y="230" width="25" height="25" fill="rgb(12,12,255)" /><text x="210" y="247" font-size="10">0.91</text><rect x="230" y="230" width="25" height="25" fill="rgb(0,0,255)" /><text x="235" y="247" font-size="10">1.00</text><rect x="255" y="230" width="25" height="25" fill="rgb(68,68,255)" /><text x="260" y="247" font-size="10">0.47</text><rect x="280" y="230" width="25" height="25" fill="rgb(173,173,255)" /><text x="285" y="247" font-size="10">-0.35</text><rect x="305" y="230" width="25" height="25" fill="rgb(105,105,255)" /><text x="310" y="247" font-size="10">0.18</text><rect x="330" y="230" width="25" height="25" fill="rgb(108,108,255)" /><text x="335" y="247" font-size="10">0.15</text><rect x="355" y="230" width="25" height="25" fill="rgb(146,146,255)" /><text x="360" y="247" font-size="10">-0.14</text><rect x="80" y="255" width="25" height="25" fill="rgb(58,58,255)" /><text x="85" y="272" font-size="10">0.55</text><rect x="105" y="255" width="25" height="25" fill="rgb(143,143,255)" /><text x="110" y="272" font-size="10">-0.12</text><rect x="130" y="255" width="25" height="25" fill="rgb(90,90,255)" /><text x="135" y="272" font-size="10">0.30</text><rect x="155" y="255" width="25" height="25" fill="rgb(66,66,255)" /><text x="160" y="272" font-size="10">0.49</text><rect x="180" y="255" width="25" height="25" fill="rgb(117,117,255)" /><text x="185" y="272" font-size="10">0.08</text><rect x="205" y="255" width="25" height="25" fill="rgb(80,80,255)" /><text x="210" y="272" font-size="10">0.38</text><rect x="230" y="255" width="25" height="25" fill="rgb(68,68,255)" /><text x="235" y="272" font-size="10">0.47</text><rect x="255" y="255" width="25" height="25" fill="rgb(0,0,255)" /><text x="260" y="272" font-size="10">1.00</text><rect x="280" y="255" width="25" height="25" fill="rgb(163,163,255)" /><text x="285" y="272" font-size="10">-0.28</text><rect x="305" y="255" width="25" height="25" fill="rgb(94,94,255)" /><text x="310" y="272" font-size="10">0.27</text><rect x="330" y="255" width="25" height="25" fill="rgb(165,165,255)" /><text x="335" y="272" font-size="10">-0.29</text><rect x="355" y="255" width="25" height="25" fill="rgb(172,172,255)" /><text x="360" y="272" font-size="10">-0.34</text><rect x="80" y="280" width="25" height="25" fill="rgb(203,203,255)" /><text x="85" y="297" font-size="10">-0.59</text><rect x="105" y="280" width="25" height="25" fill="rgb(114,114,255)" /><text x="110" y="297" font-size="10">0.11</text><rect x="130" y="280" width="25" height="25" fill="rgb(182,182,255)" /><text x="135" y="297" font-size="10">-0.43</text><rect x="155" y="280" width="25" height="25" fill="rgb(141,141,255)" /><text x="160" y="297" font-size="10">-0.10</text><rect x="180" y="280" width="25" height="25" fill="rgb(214,214,255)" /><text x="185" y="297" font-size="10">-0.67</text><rect x="205" y="280" width="25" height="25" fill="rgb(171,171,255)" /><text x="210" y="297" font-size="10">-0.34</text><rect x="230" y="280" width="25" height="25" fill="rgb(173,173,255)" /><text x="235" y="297" font-size="10">-0.35</text><rect x="255" y="280" width="25" height="25" fill="rgb(163,163,255)" /><text x="260" y="297" font-size="10">-0.28</text><rect x="280" y="280" width="25" height="25" fill="rgb(0,0,255)" /><text x="285" y="297" font-size="10">1.00</text><rect x="305" y="280" width="25" height="25" fill="rgb(201,201,255)" /><text x="310" y="297" font-size="10">-0.57</text><rect x="330" y="280" width="25" height="25" fill="rgb(99,99,255)" /><text x="335" y="297" font-size="10">0.23</text><rect x="355" y="280" width="25" height="25" fill="rgb(139,139,255)" /><text x="360" y="297" font-size="10">-0.09</text><rect x="80" y="305" width="25" height="25" fill="rgb(114,114,255)" /><text x="85" y="322" font-size="10">0.11</text><rect x="105" y="305" width="25" height="25" fill="rgb(133,133,255)" /><text x="110" y="322" font-size="10">-0.04</text><rect x="130" y="305" width="25" height="25" fill="rgb(82,82,255)" /><text x="135" y="322" font-size="10">0.36</text><rect x="155" y="305" width="25" height="25" fill="rgb(124,124,255)" /><text x="160" y="322" font-size="10">0.03</text><rect x="180" y="305" width="25" height="25" fill="rgb(44,44,255)" /><text x="185" y="322" font-size="10">0.66</text><rect x="205" y="305" width="25" height="25" fill="rgb(113,113,255)" /><text x="210" y="322" font-size="10">0.12</text><rect x="230" y="305" width="25" height="25" fill="rgb(105,105,255)" /><text x="235" y="322" font-size="10">0.18</text><rect x="255" y="305" width="25" height="25" fill="rgb(94,94,255)" /><text x="260" y="322" font-size="10">0.27</text><rect x="280" y="305" width="25" height="25" fill="rgb(201,201,255)" /><text x="285" y="322" font-size="10">-0.57</text><rect x="305" y="305" width="25" height="25" fill="rgb(0,0,255)" /><text x="310" y="322" font-size="10">1.00</text><rect x="330" y="305" width="25" height="25" fill="rgb(166,166,255)" /><text x="335" y="322" font-size="10">-0.30</text><rect x="355" y="305" width="25" height="25" fill="rgb(146,146,255)" /><text x="360" y="322" font-size="10">-0.14</text><rect x="80" y="330" width="25" height="25" fill="rgb(138,138,255)" /><text x="85" y="347" font-size="10">-0.08</text><rect x="105" y="330" width="25" height="25" fill="rgb(148,148,255)" /><text x="110" y="347" font-size="10">-0.15</text><rect x="130" y="330" width="25" height="25" fill="rgb(104,104,255)" /><text x="135" y="347" font-size="10">0.19</text><rect x="155" y="330" width="25" height="25" fill="rgb(115,115,255)" /><text x="160" y="347" font-size="10">0.11</text><rect x="180" y="330" width="25" height="25" fill="rgb(177,177,255)" /><text x="185" y="347" font-size="10">-0.39</text><rect x="205" y="330" width="25" height="25" fill="rgb(125,125,255)" /><text x="210" y="347" font-size="10">0.02</text><rect x="230" y="330" width="25" height="25" fill="rgb(108,108,255)" /><text x="235" y="347" font-size="10">0.15</text><rect x="255" y="330" width="25" height="25" fill="rgb(165,165,255)" /><text x="260" y="347" font-size="10">-0.29</text><rect x="280" y="330" width="25" height="25" fill="rgb(99,99,255)" /><text x="285" y="347" font-size="10">0.23</text><rect x="305" y="330" width="25" height="25" fill="rgb(166,166,255)" /><text x="310" y="347" font-size="10">-0.30</text><rect x="330" y="330" width="25" height="25" fill="rgb(0,0,255)" /><text x="335" y="347" font-size="10">1.00</text><rect x="355" y="330" width="25" height="25" fill="rgb(75,75,255)" /><text x="360" y="347" font-size="10">0.42</text><rect x="80" y="355" width="25" height="25" fill="rgb(97,97,255)" /><text x="85" y="372" font-size="10">0.24</text><rect x="105" y="355" width="25" height="25" fill="rgb(183,183,255)" /><text x="110" y="372" font-size="10">-0.43</text><rect x="130" y="355" width="25" height="25" fill="rgb(88,88,255)" /><text x="135" y="372" font-size="10">0.31</text><rect x="155" y="355" width="25" height="25" fill="rgb(184,184,255)" /><text x="160" y="372" font-size="10">-0.44</text><rect x="180" y="355" width="25" height="25" fill="rgb(137,137,255)" /><text x="185" y="372" font-size="10">-0.07</text><rect x="205" y="355" width="25" height="25" fill="rgb(121,121,255)" /><text x="210" y="372" font-size="10">0.05</text><rect x="230" y="355" width="25" height="25" fill="rgb(146,146,255)" /><text x="235" y="372" font-size="10">-0.14</text><rect x="255" y="355" width="25" height="25" fill="rgb(172,172,255)" /><text x="260" y="372" font-size="10">-0.34</text><rect x="280" y="355" width="25" height="25" fill="rgb(139,139,255)" /><text x="285" y="372" font-size="10">-0.09</text><rect x="305" y="355" width="25" height="25" fill="rgb(146,146,255)" /><text x="310" y="372" font-size="10">-0.14</text><rect x="330" y="355" width="25" height="25" fill="rgb(75,75,255)" /><text x="335" y="372" font-size="10">0.42</text><rect x="355" y="355" width="25" height="25" fill="rgb(0,0,255)" /><text x="360" y="372" font-size="10">1.00</text>
  <text x="82" y="70" font-size="10" transform="rotate(-45,82,70)">fixed_acidity</text><text x="10" y="95" font-size="10">fixed_acidity</text><text x="107" y="70" font-size="10" transform="rotate(-45,107,70)">volatile_acidity</text><text x="10" y="120" font-size="10">volatile_acidity</text><text x="132" y="70" font-size="10" transform="rotate(-45,132,70)">citric_acid</text><text x="10" y="145" font-size="10">citric_acid</text><text x="157" y="70" font-size="10" transform="rotate(-45,157,70)">residual_sugar</text><text x="10" y="170" font-size="10">residual_sugar</text><text x="182" y="70" font-size="10" transform="rotate(-45,182,70)">chlorides</text><text x="10" y="195" font-size="10">chlorides</text><text x="207" y="70" font-size="10" transform="rotate(-45,207,70)">free_sulfur_dioxide</text><text x="10" y="220" font-size="10">free_sulfur_dioxide</text><text x="232" y="70" font-size="10" transform="rotate(-45,232,70)">total_sulfur_dioxide</text><text x="10" y="245" font-size="10">total_sulfur_dioxide</text><text x="257" y="70" font-size="10" transform="rotate(-45,257,70)">density</text><text x="10" y="270" font-size="10">density</text><text x="282" y="70" font-size="10" transform="rotate(-45,282,70)">pH</text><text x="10" y="295" font-size="10">pH</text><text x="307" y="70" font-size="10" transform="rotate(-45,307,70)">sulphates</text><text x="10" y="320" font-size="10">sulphates</text><text x="332" y="70" font-size="10" transform="rotate(-45,332,70)">alcohol</text><text x="10" y="345" font-size="10">alcohol</text><text x="357" y="70" font-size="10" transform="rotate(-45,357,70)">quality</text><text x="10" y="370" font-size="10">quality</text>
</svg>
